<?xml version="1.0" encoding="utf-8"?>
<!-- Generator: Adobe Illustrator 23.1.1, SVG Export Plug-In . SVG Version: 6.00 Build 0)  -->
<svg version="1.1"
	 id="svg2" xmlns:cc="http://creativecommons.org/ns#" xmlns:dc="http://purl.org/dc/elements/1.1/" xmlns:inkscape="http://www.inkscape.org/namespaces/inkscape" xmlns:rdf="http://www.w3.org/1999/02/22-rdf-syntax-ns#" xmlns:sodipodi="http://sodipodi.sourceforge.net/DTD/sodipodi-0.dtd" xmlns:svg="http://www.w3.org/2000/svg"
	 xmlns="http://www.w3.org/2000/svg" xmlns:xlink="http://www.w3.org/1999/xlink" x="0px" y="0px" viewBox="0 0 1180 1204"
	 style="enable-background:new 0 0 1180 1204;" xml:space="preserve">
<style type="text/css">
	.st0{fill:#4F6581;}
	.st1{fill:#47A3DA;}
	.st2{fill:#CDBBB5;}
	.st3{fill:#D6DAD0;}
	.st4{fill:#E9F3DF;}
	.st5{fill:#EC9614;}
	.st6{fill:#F7AD1B;}
	.st7{fill:#A5651D;}
	.st8{fill:#ED4C6B;}
	.st9{fill:#C93E5E;}
	.st10{fill:#DE3E5F;}
	.st11{fill:#EE4B67;}
	.st12{fill:#3FB981;}
	.st13{fill:#77CB76;}
	.st14{fill:#232E3A;}
	.st15{fill:#FAC440;}
	.st16{fill:#F3B738;}
	.st17{clip-path:url(#SVGID_2_);}
	.st18{fill-rule:evenodd;clip-rule:evenodd;fill:#CDBBB5;}
	.st19{fill-rule:evenodd;clip-rule:evenodd;fill:#D6DAD0;}
	.st20{fill-rule:evenodd;clip-rule:evenodd;fill:#E9F3DF;}
	.st21{fill-rule:evenodd;clip-rule:evenodd;fill:#232E3A;}
	.st22{fill-rule:evenodd;clip-rule:evenodd;fill:#4F6581;}
	.st23{fill-rule:evenodd;clip-rule:evenodd;fill:#DE3E5F;}
	.st24{clip-path:url(#SVGID_4_);}
	.st25{fill:#E1EADA;}
	.st26{fill:#E3A8AB;}
	.st27{fill:#2D7F57;}
	.st28{fill:#369D6A;}
	.st29{fill-rule:evenodd;clip-rule:evenodd;fill:#F7AD1B;}
	.st30{fill:#39495D;}
	.st31{fill:#302F2F;}
	.st32{fill:#F4F8F1;}
	.st33{fill:#90531D;}
	.st34{fill-rule:evenodd;clip-rule:evenodd;fill:#C93E5E;}
	.st35{fill-rule:evenodd;clip-rule:evenodd;fill:#ED4C6B;}
	.st36{fill-rule:evenodd;clip-rule:evenodd;fill:#A1344D;}
	.st37{fill-rule:evenodd;clip-rule:evenodd;fill:#E5C4B8;}
	.st38{fill-rule:evenodd;clip-rule:evenodd;fill:#A5651D;}
	.st39{fill-rule:evenodd;clip-rule:evenodd;fill:#EC9614;}
</style>
<sodipodi:namedview  bordercolor="#666666" borderopacity="1" fit-margin-bottom="0" fit-margin-left="0" fit-margin-right="0" fit-margin-top="0" gridtolerance="10" guidetolerance="10" id="namedview4" inkscape:current-layer="g10" inkscape:cx="939.38822" inkscape:cy="646.48678" inkscape:pageopacity="0" inkscape:pageshadow="2" inkscape:window-height="702" inkscape:window-maximized="1" inkscape:window-width="1366" inkscape:window-x="1600" inkscape:window-y="27" inkscape:zoom="0.3814336" objecttolerance="10" pagecolor="#ffffff" showgrid="false">
	</sodipodi:namedview>
<g id="g10" transform="matrix(1.25,0,0,-1.25,1073.553,1011.0581)" inkscape:groupmode="layer" inkscape:label="ink_ext_XXXXXX">
	<path id="path28" inkscape:connector-curvature="0" class="st0" d="M-634.9,675.9c0-31.5-25.6-57.1-57.1-57.1
		c-31.5,0-57.1,25.6-57.1,57.1c0,31.5,25.6,57.1,57.1,57.1S-634.9,707.4-634.9,675.9"/>
	<path id="path30" inkscape:connector-curvature="0" class="st1" d="M-641.2,675.9c0-28-22.7-50.8-50.8-50.8
		c-28,0-50.8,22.7-50.8,50.8c0,28,22.7,50.8,50.8,50.8C-664,726.6-641.2,703.9-641.2,675.9"/>
	<path id="path32" inkscape:connector-curvature="0" class="st2" d="M-720.1,634.7l-4.9,4l48.8,60.6l4.9-4L-720.1,634.7"/>
	<path id="path34" inkscape:connector-curvature="0" class="st3" d="M-720.1,637.9l-4.9,4l48.8,60.6l4.9-4L-720.1,637.9"/>
	<path id="path36" inkscape:connector-curvature="0" class="st4" d="M-725,641.9l2.1-1.7l46.9,58.2l-2.1,1.7L-725,641.9"/>
	<path id="path38" inkscape:connector-curvature="0" class="st5" d="M-664.9,710.3l-3.2-14.1l9.8-10.6l-14.4-1.3l-7.1-12.6
		l-5.7,13.3l-14.1,2.8l10.9,9.5l-1.7,14.3l12.4-7.4L-664.9,710.3"/>
	<path id="path40" inkscape:connector-curvature="0" class="st6" d="M-685.8,685.1l20.5,23.5l0.4,1.8l-13.1-6l-12.4,7.4l1.7-14.3
		l-10.9-9.5L-685.8,685.1"/>
	<path id="path42" inkscape:connector-curvature="0" class="st4" d="M-669.2,670.7l2.5-4.5l4.5-2.5l-4.5-2.5l-2.5-4.5l-2.5,4.5
		l-4.5,2.5l4.5,2.5L-669.2,670.7"/>
	<path id="path44" inkscape:connector-curvature="0" class="st4" d="M-682.1,662.9l0.1-2.8l1.6-2.3l-2.8-0.1l-2.3-1.6l-0.1,2.8
		l-1.6,2.3l2.8,0.1L-682.1,662.9"/>
	<path id="path58" inkscape:connector-curvature="0" class="st1" d="M-481,675.9c0-31.5-25.6-57.1-57.1-57.1s-57.1,25.6-57.1,57.1
		c0,31.5,25.6,57.1,57.1,57.1S-481,707.4-481,675.9"/>
	<path id="path60" inkscape:connector-curvature="0" class="st0" d="M-487.3,675.9c0-28-22.7-50.8-50.8-50.8s-50.8,22.7-50.8,50.8
		c0,28,22.7,50.8,50.8,50.8C-510.1,726.6-487.3,703.9-487.3,675.9"/>
	<path id="path62" inkscape:connector-curvature="0" class="st7" d="M-537.6,710.4l11.2-22.8l25.1-3.6l-18.2-17.7l4.3-25l-22.5,11.8
		l-22.5-11.8l4.3,25l-18.2,17.7l25.1,3.6L-537.6,710.4"/>
	<path id="path64" inkscape:connector-curvature="0" class="st5" d="M-537.6,713.6l11.2-22.8l25.1-3.6l-18.2-17.7l4.3-25l-22.5,11.8
		l-22.5-11.8l4.3,25l-18.2,17.7l25.1,3.6L-537.6,713.6"/>
	<path id="path66" inkscape:connector-curvature="0" class="st6" d="M-559.9,645.4l45.4,43.7l-11.8,1.7l-11.2,22.8l-11.2-22.8
		l-25.1-3.6l18.2-17.7L-559.9,645.4"/>
	<path id="path80" inkscape:connector-curvature="0" class="st8" d="M-173.2,675.9c0-31.5-25.6-57.1-57.1-57.1s-57.1,25.6-57.1,57.1
		c0,31.5,25.6,57.1,57.1,57.1S-173.2,707.4-173.2,675.9"/>
	<path id="path82" inkscape:connector-curvature="0" class="st6" d="M-179.5,675.9c0-28-22.7-50.8-50.8-50.8s-50.8,22.7-50.8,50.8
		c0,28,22.7,50.8,50.8,50.8S-179.5,703.9-179.5,675.9"/>
	<path id="path84" inkscape:connector-curvature="0" class="st9" d="M-210.7,704c-6.6,0.7-17.6-3.4-19.5-14
		c-1.9,10.6-12.9,14.7-19.5,14c-8.1-0.9-18.8-4.4-16.1-21.1c2.7-16.6,35.8-45.1,35.8-45.1s32.8,28.5,35.5,45.1
		C-191.9,699.5-202.6,703.1-210.7,704"/>
	<path id="path86" inkscape:connector-curvature="0" class="st10" d="M-210.7,707.1c-6.6,0.7-17.6-3.4-19.5-14
		c-1.9,10.6-12.9,14.7-19.5,14c-8.1-0.9-18.8-4.4-16.1-21.1c2.7-16.6,35.8-45.1,35.8-45.1s32.8,28.5,35.5,45.1
		C-191.9,702.7-202.6,706.3-210.7,707.1"/>
	<path id="path88" inkscape:connector-curvature="0" class="st11" d="M-210.7,707.1c-6.6,0.7-17.6-3.4-19.5-14
		c-1.9,10.6-12.9,14.7-19.5,14c-8.1-0.9-18.8-4.4-16.1-21.1c1.2-7.6,8.8-17.6,16.6-26.2l48,44.6
		C-204.2,706.1-207.7,706.8-210.7,707.1"/>
	<path id="path90" inkscape:connector-curvature="0" class="st4" d="M-255.4,659.8l2.9-5.2l5.2-2.9l-5.2-2.9l-2.9-5.2l-2.9,5.2
		l-5.2,2.9l5.2,2.9L-255.4,659.8"/>
	<path id="path92" inkscape:connector-curvature="0" class="st4" d="M-202.6,671.3l1.3-2.3l2.3-1.3l-2.3-1.3l-1.3-2.3l-1.3,2.3
		l-2.3,1.3l2.3,1.3L-202.6,671.3"/>
	<path id="path94" inkscape:connector-curvature="0" class="st4" d="M-239.1,714.2l2.1-3.9l3.9-2.1l-3.9-2.1l-2.1-3.9l-2.1,3.9
		l-3.9,2.1l3.9,2.1L-239.1,714.2"/>
	<path id="path108" inkscape:connector-curvature="0" class="st0" d="M-327.1,675.9c0-31.5-25.6-57.1-57.1-57.1
		c-31.5,0-57.1,25.6-57.1,57.1s25.6,57.1,57.1,57.1C-352.7,733-327.1,707.4-327.1,675.9"/>
	<path id="path110" inkscape:connector-curvature="0" class="st12" d="M-333.4,675.9c0-28-22.7-50.8-50.8-50.8
		c-28,0-50.8,22.7-50.8,50.8c0,28,22.7,50.8,50.8,50.8C-356.2,726.6-333.4,703.9-333.4,675.9"/>
	<path id="path112" inkscape:connector-curvature="0" class="st13" d="M-383.2,650c-17.8,0-32.3,14.4-32.3,32.3
		c0,17.8,14.5,32.3,32.3,32.3s32.3-14.5,32.3-32.3S-365.3,650-383.2,650 M-375.6,654.2h5c0.1,1.8,4.6,9.2,7.4,13.6
		c3.5,4.3,5.5,9.8,5.5,15.7c0,13.9-11.3,25.2-25.2,25.2c-13.9,0-25.2-11.3-25.2-25.2c0-5.6,1.9-10.9,5-15.1
		c2.7-4.2,7.8-12.4,7.8-14.2L-375.6,654.2"/>
	<path id="path114" inkscape:connector-curvature="0" class="st14" d="M-376.8,638.4c0-2.6-2.8-4.8-6.3-4.8c-3.5,0-6.3,2.1-6.3,4.8
		c0,2.6,2.8,4.8,6.3,4.8C-379.6,643.2-376.8,641.1-376.8,638.4"/>
	<path id="path116" inkscape:connector-curvature="0" class="st0" d="M-395.4,638.2h24.8v16.1h-24.8V638.2z"/>
	<path id="path118" inkscape:connector-curvature="0" class="st6" d="M-357.7,683.4c0,13.9-11.3,25.2-25.2,25.2
		c-13.9,0-25.2-11.3-25.2-25.2c0-5.6,1.9-10.9,5-15.1c2.7-4.2,7.8-12.4,7.8-14.2h24.7c0.1,1.8,4.6,9.2,7.4,13.6
		C-359.8,672-357.7,677.5-357.7,683.4"/>
	<path id="path120" inkscape:connector-curvature="0" class="st5" d="M-376.3,685.6h-4.1l-1.4-10.7c-0.5-3.6-0.9-7.8-1.3-11.6h-0.1
		c-0.3,3.8-0.7,7.8-1.2,11.5l-1.4,10.8h-4.1l-0.9-31.4h2.9l0.3,11.4c0.1,4,0.2,9,0.2,13.3h0c0.3-4.3,0.8-8.8,1.2-12.6l1.4-12.1h2.5
		l1.6,12.3c0.5,3.8,1.1,8.4,1.6,12.5h0c0-4.7,0.1-9.4,0.1-13.2l0.2-11.5h3L-376.3,685.6"/>
	<path id="path122" inkscape:connector-curvature="0" class="st15" d="M-390.6,673.2c-7.7,0-13.9,6.2-13.9,13.9s6.2,13.9,13.9,13.9
		c7.7,0,13.9-6.2,13.9-13.9c0-0.5,0-1.1-0.1-1.6h-3.6l-1.2-9.1c-0.8-0.7-1.8-1.3-2.8-1.8c0,0,0,0,0,0.1l-1.4,10.8h-4.1l-0.3-12.3
		C-390.4,673.2-390.5,673.2-390.6,673.2 M-387.5,673.6c0,1.8,0.1,3.6,0.1,5.3h0c0.1-1.7,0.3-3.5,0.5-5.2
		C-387.1,673.7-387.3,673.6-387.5,673.6"/>
	<path id="path124" inkscape:connector-curvature="0" class="st16" d="M-390.2,673.2l0.3,12.3h4.1l1.4-10.8c0,0,0,0,0-0.1
		c-0.8-0.4-1.6-0.7-2.5-1c-0.2,1.7-0.3,3.5-0.5,5.2h0c0-1.7-0.1-3.5-0.1-5.3C-388.4,673.4-389.3,673.3-390.2,673.2 M-381.6,676.5
		l1.2,9.1h3.6C-377.2,681.9-379,678.7-381.6,676.5"/>
	<path id="path126" inkscape:connector-curvature="0" class="st14" d="M-368.8,650.7c0-0.9-0.7-1.6-1.6-1.6h-25.2
		c-0.9,0-1.6,0.7-1.6,1.6c0,0.9,0.7,1.6,1.6,1.6h25.2C-369.5,652.4-368.8,651.6-368.8,650.7"/>
	<path id="path128" inkscape:connector-curvature="0" class="st14" d="M-368.7,645.8c0-0.9-0.7-1.6-1.6-1.6h-25.2
		c-0.9,0-1.6,0.7-1.6,1.6c0,0.9,0.7,1.6,1.6,1.6h25.2C-369.4,647.4-368.7,646.7-368.7,645.8"/>
	<path id="path130" inkscape:connector-curvature="0" class="st14" d="M-368.9,641.2c0-0.9-0.7-1.6-1.6-1.6h-25.2
		c-0.9,0-1.6,0.7-1.6,1.6s0.7,1.6,1.6,1.6h25.2C-369.6,642.8-368.9,642-368.9,641.2"/>
	<path id="path144" inkscape:connector-curvature="0" class="st0" d="M-19.3,675.9c0-31.5-25.6-57.1-57.1-57.1s-57.1,25.6-57.1,57.1
		c0,31.5,25.6,57.1,57.1,57.1S-19.3,707.4-19.3,675.9"/>
	<path id="path146" inkscape:connector-curvature="0" class="st8" d="M-25.6,675.9c0-28-22.7-50.8-50.8-50.8s-50.8,22.7-50.8,50.8
		c0,28,22.7,50.8,50.8,50.8S-25.6,703.9-25.6,675.9"/>
	<g id="g148" transform="matrix(0.15866154,0,0,0.15866154,-790.38498,-160.43951)">
		<g>
			<defs>
				<path id="SVGID_1_" d="M4820,5271c0-176.7-143.3-319.9-320-319.9s-320,143.3-320,319.9c0,176.8,143.3,320,320,320
					C4676.7,5591,4820,5447.8,4820,5271"/>
			</defs>
			<clipPath id="SVGID_2_">
				<use xlink:href="#SVGID_1_"  style="overflow:visible;"/>
			</clipPath>
			<g id="g150" class="st17">
				<path id="path156" inkscape:connector-curvature="0" class="st18" d="M4638.9,4866.9v421.9H4762l-160.7,209.5l-160.7-209.5
					h123.2v-421.9H4638.9"/>
				<path id="path158" inkscape:connector-curvature="0" class="st19" d="M4638.9,4886.9v421.9H4762l-160.7,209.5l-160.7-209.5
					h123.2v-421.9H4638.9"/>
				<path id="path160" inkscape:connector-curvature="0" class="st20" d="M4697.1,5393.4l-95.8,124.9l-160.7-209.5h123.2V5268
					L4697.1,5393.4"/>
				<path id="path162" inkscape:connector-curvature="0" class="st18" d="M4418.8,4774.6v308.3h90L4391.3,5236l-117.4-153.1h90
					v-308.3H4418.8"/>
				<path id="path164" inkscape:connector-curvature="0" class="st19" d="M4418.8,4789.2v308.3h90l-117.4,153.1l-117.4-153.1h90
					v-308.3H4418.8"/>
				<path id="path166" inkscape:connector-curvature="0" class="st20" d="M4363.9,5078.2c31.9,30.4,67,62.1,93.8,85.9l-66.4,86.5
					l-117.4-153.1h90V5078.2"/>
			</g>
		</g>
	</g>
	<path id="path180" inkscape:connector-curvature="0" class="st0" d="M-634.9,496.6c0-31.5-25.6-57.1-57.1-57.1
		c-31.5,0-57.1,25.6-57.1,57.1c0,31.5,25.6,57.1,57.1,57.1S-634.9,528.1-634.9,496.6"/>
	<path id="path182" inkscape:connector-curvature="0" class="st12" d="M-641.2,496.6c0-28-22.7-50.8-50.8-50.8
		c-28,0-50.8,22.7-50.8,50.8c0,28,22.7,50.8,50.8,50.8C-664,547.4-641.2,524.6-641.2,496.6"/>
	<path id="path184" inkscape:connector-curvature="0" class="st2" d="M-668.7,493.4l11.9-26.5l-13.4,2.6l-5.4-13.2l-13.2,28.3
		L-668.7,493.4"/>
	<path id="path186" inkscape:connector-curvature="0" class="st4" d="M-668.7,495.6l11.9-26.5l-13.4,2.6l-5.4-13.2l-13.2,28.3
		L-668.7,495.6"/>
	<path id="path188" inkscape:connector-curvature="0" class="st2" d="M-713.1,493.4l-11.9-26.5l13.4,2.6l5.4-13.2l13.2,28.3
		L-713.1,493.4"/>
	<path id="path190" inkscape:connector-curvature="0" class="st4" d="M-713.1,495.6L-725,469l13.4,2.6l5.4-13.2l13.2,28.3
		L-713.1,495.6"/>
	<path id="path192" inkscape:connector-curvature="0" class="st7" d="M-690.8,488.2c-10.3,0-18.7,8.4-18.7,18.7
		c0,10.3,8.4,18.7,18.7,18.7c10.3,0,18.7-8.4,18.7-18.7C-672.1,496.5-680.5,488.2-690.8,488.2 M-665.3,502.1l3.3,3l-2.9,3.4l2.4,3.8
		l-3.6,2.6l1.4,4.3l-4.2,1.6l0.3,4.5l-4.4,0.5l-0.8,4.4l-4.4-0.6l-1.9,4.1l-4.2-1.7l-2.8,3.5l-3.6-2.7l-3.6,2.7l-2.8-3.5l-4.2,1.7
		l-1.9-4.1l-4.4,0.6l-0.8-4.4l-4.4-0.5l0.3-4.5l-4.2-1.6l1.4-4.3l-3.6-2.6l2.4-3.8l-2.9-3.4l3.3-3l-1.9-4l3.9-2.1l-0.9-4.4l4.3-1.1
		l0.3-4.5l4.5,0l1.4-4.3l4.3,1.1l2.4-3.8l3.9,2.2l3.2-3.1l3.2,3.1l3.9-2.2l2.4,3.8l4.3-1.1l1.4,4.3l4.5,0l0.3,4.5l4.3,1.1l-0.9,4.4
		l3.9,2.1L-665.3,502.1"/>
	<path id="path194" inkscape:connector-curvature="0" class="st7" d="M-690.8,522c-8.3,0-15.1-6.8-15.1-15.1
		c0-8.3,6.8-15.1,15.1-15.1c8.3,0,15.1,6.8,15.1,15.1C-675.7,515.2-682.5,522-690.8,522"/>
	<path id="path196" inkscape:connector-curvature="0" class="st5" d="M-690.8,490.3c-10.3,0-18.7,8.4-18.7,18.7
		c0,10.3,8.4,18.7,18.7,18.7c10.3,0,18.7-8.4,18.7-18.7C-672.1,498.7-680.5,490.3-690.8,490.3 M-665.3,504.3l3.3,3l-2.9,3.4l2.4,3.8
		l-3.6,2.6l1.4,4.3l-4.2,1.6l0.3,4.5l-4.4,0.5l-0.8,4.4l-4.4-0.6l-1.9,4.1l-4.2-1.7l-2.8,3.5l-3.6-2.7l-3.6,2.7l-2.8-3.5l-4.2,1.7
		l-1.9-4.1l-4.4,0.6l-0.8-4.4l-4.4-0.5l0.3-4.5l-4.2-1.6l1.4-4.3l-3.6-2.6l2.4-3.8l-2.9-3.4l3.3-3l-1.9-4l3.9-2.1l-0.9-4.4l4.3-1.1
		l0.3-4.5l4.5,0l1.4-4.3l4.3,1.1l2.4-3.8l3.9,2.2l3.2-3.1l3.2,3.1l3.9-2.2l2.4,3.8l4.3-1.1l1.4,4.3l4.5,0l0.3,4.5l4.3,1.1l-0.9,4.4
		l3.9,2.1L-665.3,504.3"/>
	<path id="path198" inkscape:connector-curvature="0" class="st5" d="M-690.8,524.1c-8.3,0-15.1-6.8-15.1-15.1
		c0-8.3,6.8-15.1,15.1-15.1c8.3,0,15.1,6.8,15.1,15.1C-675.7,517.3-682.5,524.1-690.8,524.1"/>
	<path id="path200" inkscape:connector-curvature="0" class="st6" d="M-690.8,524.1c-8.3,0-15.1-6.8-15.1-15.1
		c0-6.5,4.1-12,9.8-14.1l19.9,17.8C-677.8,519.2-683.7,524.1-690.8,524.1"/>
	<path id="path202" inkscape:connector-curvature="0" class="st10" d="M-690.4,517.2l2.7-5.4l6-0.9l-4.3-4.2l1-6l-5.4,2.8l-5.3-2.8
		l1,6l-4.3,4.2l6,0.9L-690.4,517.2"/>
	<path id="path246" inkscape:connector-curvature="0" class="st0" d="M-327.1,496.6c0-31.5-25.6-57.1-57.1-57.1
		s-57.1,25.6-57.1,57.1c0,31.5,25.6,57.1,57.1,57.1S-327.1,528.1-327.1,496.6"/>
	<path id="path248" inkscape:connector-curvature="0" class="st8" d="M-333.4,496.6c0-28-22.7-50.8-50.8-50.8s-50.8,22.7-50.8,50.8
		c0,28,22.7,50.8,50.8,50.8C-356.2,547.4-333.4,524.6-333.4,496.6"/>
	<path id="path250" inkscape:connector-curvature="0" class="st21" d="M-344,493.2c0-22.1-17.9-40.1-40.1-40.1
		c-22.1,0-40.1,17.9-40.1,40.1c0,22.1,17.9,40.1,40.1,40.1C-361.9,533.2-344,515.3-344,493.2"/>
	<path id="path252" inkscape:connector-curvature="0" class="st22" d="M-344,495.1c0-22.1-17.9-40.1-40.1-40.1
		c-22.1,0-40.1,17.9-40.1,40.1c0,22.1,17.9,40.1,40.1,40.1C-361.9,535.2-344,517.2-344,495.1"/>
	<path id="path254" inkscape:connector-curvature="0" class="st20" d="M-349.5,495.1c0-19.1-15.5-34.6-34.6-34.6
		c-19.1,0-34.6,15.5-34.6,34.6c0,19.1,15.5,34.6,34.6,34.6C-365,529.7-349.5,514.2-349.5,495.1"/>
	<path id="path256" inkscape:connector-curvature="0" class="st22" d="M-356.6,495.1c0-15.2-12.3-27.5-27.5-27.5
		c-15.2,0-27.5,12.3-27.5,27.5c0,15.2,12.3,27.5,27.5,27.5C-368.9,522.6-356.6,510.3-356.6,495.1"/>
	<path id="path258" inkscape:connector-curvature="0" class="st20" d="M-362.2,495.1c0-12.1-9.8-21.9-21.9-21.9
		c-12.1,0-21.9,9.8-21.9,21.9c0,12.1,9.8,21.9,21.9,21.9S-362.2,507.2-362.2,495.1"/>
	<path id="path260" inkscape:connector-curvature="0" class="st22" d="M-367.6,495.1c0-9.1-7.4-16.5-16.5-16.5s-16.5,7.4-16.5,16.5
		c0,9.1,7.4,16.5,16.5,16.5S-367.6,504.2-367.6,495.1"/>
	<path id="path262" inkscape:connector-curvature="0" class="st20" d="M-372.8,495.1c0-6.2-5-11.2-11.2-11.2
		c-6.2,0-11.2,5-11.2,11.2c0,6.2,5,11.2,11.2,11.2C-377.9,506.3-372.8,501.3-372.8,495.1"/>
	<path id="path264" inkscape:connector-curvature="0" class="st23" d="M-377.4,495.1c0-3.7-3-6.7-6.7-6.7c-3.7,0-6.7,3-6.7,6.7
		c0,3.7,3,6.7,6.7,6.7C-380.4,501.8-377.4,498.8-377.4,495.1"/>
	<path id="path266" inkscape:connector-curvature="0" class="st21" d="M-363.6,515.3v10.5l13.6,14v-11L-363.6,515.3"/>
	<path id="path268" inkscape:connector-curvature="0" class="st14" d="M-383,494.6c-0.9-0.8-1.5-1.4-2-0.9c-0.4,0.5,0.2,1.2,1,2
		l37,36c0.9,0.8,2.2,0.7,3.1-0.2c0.8-0.9,0.8-2.3,0-3.1L-383,494.6"/>
	<path id="path270" inkscape:connector-curvature="0" class="st21" d="M-361.2,513.4l10.5-0.6l14.8,12.7l-11,0.7L-361.2,513.4"/>
	<path id="path272" inkscape:connector-curvature="0" class="st0" d="M-344.6,530.5c0,0.8-0.6,1.4-1.4,1.4c-0.7,0-1.2-0.5-1.4-1.1h0
		l-18.9-18.7l-14.7-14.5l35.7,31.7l0,0C-344.9,529.6-344.6,530-344.6,530.5"/>
	<path id="path286" inkscape:connector-curvature="0" class="st0" d="M-173.2,496.6c0-31.5-25.6-57.1-57.1-57.1
		s-57.1,25.6-57.1,57.1c0,31.5,25.6,57.1,57.1,57.1S-173.2,528.1-173.2,496.6"/>
	<path id="path288" inkscape:connector-curvature="0" class="st1" d="M-179.5,496.6c0-28-22.7-50.8-50.8-50.8s-50.8,22.7-50.8,50.8
		c0,28,22.7,50.8,50.8,50.8S-179.5,524.6-179.5,496.6"/>
	<path id="path290" inkscape:connector-curvature="0" class="st7" d="M-194.7,499.9h-21.6v18.7c0,2.3-0.1,2.5-2.4,2.5h-21.2
		c-2.3,0-6.1-0.1-6.1-2.5v-18.7h-17.9c-2.3,0-6.1-0.1-6.1-2.5v-18.3c0-2.3,3.7-6,6.1-6h69.1c2.3,0,2.4,3.6,2.4,6v18.3
		C-192.3,499.8-192.4,499.9-194.7,499.9"/>
	<path id="path292" inkscape:connector-curvature="0" class="st5" d="M-194.7,503.1h-21.6v18.7c0,2.3-0.1,2.5-2.4,2.5h-21.2
		c-2.3,0-6.1-0.1-6.1-2.5v-18.7h-17.9c-2.3,0-6.1-0.1-6.1-2.5v-18.3c0-2.3,3.7-6,6.1-6h69.1c2.3,0,2.4,3.6,2.4,6v18.3
		C-192.3,503-192.4,503.1-194.7,503.1"/>
	<path id="path294" inkscape:connector-curvature="0" class="st6" d="M-218.7,524.3h-21.2c-2.3,0-6.1-0.1-6.1-2.5v-18.7h-17.9
		c-2.3,0-6.1-0.1-6.1-2.5v-18.3c0-2.3,3.7-6,6.1-6h16.2l31.3,27.1v18.4C-216.3,524.1-216.3,524.3-218.7,524.3"/>
	<path id="path296" inkscape:connector-curvature="0" class="st7" d="M-233,497.1c0.3,0,0.5,0.1,0.7,0.2c0.2,0.1,0.3,0.4,0.3,0.9v13
		c-0.2,0-0.4,0-0.6,0c-0.2,0-0.5-0.1-0.7-0.1c-0.2-0.1-0.4-0.2-0.6-0.3c-0.2-0.1-0.3-0.3-0.4-0.5h-0.5v4.9h0.5
		c0-0.2,0.1-0.4,0.3-0.5c0.2-0.1,0.5-0.1,0.7-0.1c0.4,0,0.8,0.1,1.1,0.4c0.3,0.3,0.4,0.6,0.4,1c0,0.4-0.1,0.6-0.3,0.7
		c-0.2,0.1-0.4,0.2-0.7,0.2v0.5h6.3v-0.5c-0.3-0.1-0.6-0.1-0.8-0.3c-0.2-0.1-0.3-0.3-0.3-0.6v-17.8c0-0.4,0.1-0.7,0.3-0.9
		c0.2-0.1,0.4-0.2,0.7-0.2v-0.5h-6.4V497.1"/>
	<path id="path298" inkscape:connector-curvature="0" class="st7" d="M-250.2,483.5h-0.3c0,0.2-0.1,0.3-0.2,0.3c-0.2,0-0.3,0-0.5,0
		h-10.8c-0.2,0-0.3,0-0.5,0c-0.1,0-0.2-0.1-0.2-0.3h-0.3v0.9c0,0.9,0.2,1.7,0.7,2.3c0.5,0.6,1,1.2,1.7,1.7c0.7,0.5,1.4,0.9,2.2,1.3
		s1.5,0.7,2.2,1.1c0.7,0.4,1.2,0.7,1.7,1.1c0.5,0.4,0.7,0.9,0.7,1.4c0,0.4-0.1,0.7-0.2,0.9c-0.2,0.2-0.4,0.4-0.6,0.6
		c-0.3,0.1-0.5,0.2-0.8,0.3c-0.3,0.1-0.6,0.1-0.9,0.1c-0.3,0-0.6-0.1-1.1-0.2c-0.4-0.1-0.8-0.3-1.2-0.5c-0.4-0.2-0.7-0.4-1-0.7
		c-0.3-0.3-0.4-0.6-0.4-1l0.1-0.3l0.2-0.3l-0.3-0.2l-2.6,2.8l0.3,0.2l0.2-0.1l0.2-0.1c0.1,0,0.3,0.1,0.6,0.4
		c0.3,0.3,0.6,0.5,1.1,0.8s1.1,0.6,1.8,0.8c0.7,0.3,1.6,0.4,2.6,0.4c0.6,0,1.3-0.1,1.9-0.2c0.6-0.2,1.2-0.4,1.7-0.7
		c0.5-0.3,0.9-0.8,1.2-1.3c0.3-0.5,0.4-1.2,0.4-1.9c0-0.8-0.2-1.5-0.5-2c-0.3-0.5-0.7-1-1.2-1.3c-0.5-0.4-1.1-0.7-1.7-0.9
		c-0.6-0.3-1.3-0.5-1.9-0.8c-0.7-0.2-1.3-0.5-1.9-0.8c-0.6-0.3-1.1-0.6-1.6-1v-0.3h8.4c0.2,0,0.4,0,0.5,0.1c0.2,0.1,0.2,0.3,0.2,0.6
		h0.3L-250.2,483.5"/>
	<path id="path300" inkscape:connector-curvature="0" class="st7" d="M-210.7,495.4l0.3,0.2c0.1-0.1,0.3-0.1,0.4-0.1
		c0.1,0,0.2,0.1,0.5,0.3c0.2,0.2,0.6,0.4,1,0.7c0.4,0.2,1,0.5,1.7,0.7c0.7,0.2,1.5,0.3,2.5,0.3c0.7,0,1.3-0.1,2-0.2
		c0.7-0.1,1.3-0.4,1.8-0.7c0.6-0.3,1-0.7,1.4-1.2c0.4-0.5,0.5-1,0.5-1.7c0-0.6-0.2-1.2-0.5-1.7c-0.4-0.5-0.8-0.9-1.4-1v-0.1
		c0.7-0.2,1.3-0.5,1.8-1c0.5-0.5,0.7-1.1,0.7-1.9c0-0.9-0.2-1.6-0.7-2.1c-0.4-0.6-1-1-1.6-1.3c-0.6-0.3-1.4-0.6-2.1-0.7
		c-0.8-0.1-1.5-0.2-2.2-0.2c-0.8,0-1.5,0.1-2.1,0.2s-1.3,0.3-1.8,0.5c-0.5,0.2-0.9,0.4-1.3,0.5c-0.3,0.2-0.6,0.2-0.7,0.2l-0.2-0.1
		l-0.2-0.1l-0.2,0.1l1.5,3.7l0.3-0.2l0-0.2v-0.2c0-0.4,0.2-0.7,0.6-1c0.4-0.3,0.8-0.6,1.3-0.8c0.5-0.2,1.1-0.4,1.6-0.5
		c0.6-0.1,1.1-0.2,1.4-0.2c0.3,0,0.7,0,1.1,0.1c0.4,0.1,0.8,0.2,1.2,0.3c0.4,0.2,0.7,0.4,0.9,0.6c0.3,0.3,0.4,0.6,0.4,1
		c0,0.4-0.1,0.7-0.4,1s-0.6,0.4-0.9,0.6c-0.4,0.1-0.7,0.2-1.1,0.3c-0.4,0-0.7,0.1-1,0.1c-0.4,0-0.8,0-1.1-0.1
		c-0.3-0.1-0.5-0.3-0.6-0.6h-0.3v3.5h0.3c0-0.3,0.2-0.6,0.5-0.7c0.3-0.1,0.7-0.2,1.1-0.2c0.3,0,0.6,0,0.9,0.1c0.4,0.1,0.7,0.1,1,0.3
		c0.3,0.1,0.6,0.3,0.8,0.6c0.2,0.2,0.3,0.5,0.3,0.9c0,0.3-0.1,0.6-0.3,0.8c-0.2,0.2-0.5,0.4-0.8,0.5c-0.3,0.1-0.7,0.2-1.1,0.2
		c-0.4,0-0.8,0.1-1.2,0.1c-0.5,0-0.9-0.1-1.4-0.2c-0.5-0.1-0.9-0.2-1.3-0.4c-0.4-0.2-0.7-0.4-1-0.6c-0.3-0.2-0.4-0.4-0.4-0.6l0-0.2
		l0.1-0.3l-0.2-0.2L-210.7,495.4"/>
	<path id="path344" inkscape:connector-curvature="0" class="st1" d="M-634.9,314.1c0-31.5-25.6-57.1-57.1-57.1
		c-31.5,0-57.1,25.6-57.1,57.1c0,31.5,25.6,57.1,57.1,57.1S-634.9,345.7-634.9,314.1"/>
	<path id="path346" inkscape:connector-curvature="0" class="st0" d="M-641.2,314.1c0-28-22.7-50.8-50.8-50.8
		c-28,0-50.8,22.7-50.8,50.8c0,28,22.7,50.8,50.8,50.8C-664,364.9-641.2,342.2-641.2,314.1"/>
	<path id="path348" inkscape:connector-curvature="0" class="st7" d="M-724.4,329.2l9.3-40.7c0,0,20.1-11.2,46,0.9l10,39l-20.2-12.1
		l-13.2,15.8l-13.8-15.8L-724.4,329.2"/>
	<path id="path350" inkscape:connector-curvature="0" class="st5" d="M-724.5,329.2l8.7-37.9c0,0,21.5-11.1,47.4,1l9.7,38.1
		l-20.2-12.1l-13.2,15.8l-13.8-15.8L-724.5,329.2"/>
	<path id="path352" inkscape:connector-curvature="0" class="st6" d="M-659.3,334.2c-2.4,0-4.3-1.9-4.3-4.3c0-0.7,0.2-1.4,0.5-2.1
		l-15.9-9.6l-10.3,12.3c1.7,1,2.9,2.9,2.9,5c0,3.2-2.6,5.8-5.8,5.8c-3.2,0-5.8-2.6-5.8-5.8c0-2.1,1.1-3.9,2.8-5l-10.8-12.4
		l-14.6,8.6c0.4,0.7,0.6,1.4,0.6,2.2c0,2.4-1.9,4.3-4.3,4.3c-2.4,0-4.3-1.9-4.3-4.3c0-2.4,1.9-4.3,4.3-4.3c0.2,0,0.5,0,0.7,0.1
		l7.7-33.5c0,0,4.5-2.3,11.9-3.7l41.5,39.3c0.8-0.8,1.9-1.4,3.1-1.4c2.4,0,4.3,1.9,4.3,4.3C-654.9,332.3-656.9,334.2-659.3,334.2"/>
	<path id="path354" inkscape:connector-curvature="0" class="st9" d="M-698.1,316.9l6.1,6.1l6.1-6.1l-6.1-6.1L-698.1,316.9"/>
	<path id="path356" inkscape:connector-curvature="0" class="st10" d="M-697.3,317.7l5.3,5.3l5.3-5.3l-5.3-5.3L-697.3,317.7"/>
	<path id="path358" inkscape:connector-curvature="0" class="st11" d="M-691.8,322.7l-0.2,0.2l-5.3-5.3l5.3-5.3l0.2,0.2V322.7"/>
	<path id="path372" inkscape:connector-curvature="0" class="st0" d="M-481,314.1c0-31.5-25.6-57.1-57.1-57.1s-57.1,25.6-57.1,57.1
		s25.6,57.1,57.1,57.1S-481,345.7-481,314.1"/>
	<path id="path374" inkscape:connector-curvature="0" class="st8" d="M-487.3,314.1c0-28-22.7-50.8-50.8-50.8
		c-28,0-50.8,22.7-50.8,50.8c0,28,22.7,50.8,50.8,50.8C-510.1,364.9-487.3,342.2-487.3,314.1"/>
	<g id="g376" transform="matrix(0.15866154,0,0,0.15866154,-790.38498,-160.43951)">
		<g>
			<defs>
				<path id="SVGID_3_" d="M1910,2991c0-176.8-143.3-320-319.9-320c-176.8,0-320,143.3-320,320c0,176.7,143.3,319.9,320,319.9
					C1766.7,3311,1910,3167.7,1910,2991"/>
			</defs>
			<clipPath id="SVGID_4_">
				<use xlink:href="#SVGID_3_"  style="overflow:visible;"/>
			</clipPath>
			<g id="g378" class="st24">
				<path id="path384" inkscape:connector-curvature="0" class="st2" d="M1709.2,3043.3l-116.7-116.6l-329.9,329.9l116.6,116.7
					L1709.2,3043.3"/>
				<path id="path386" inkscape:connector-curvature="0" class="st0" d="M1682.6,3016.8l-24.2-24.2l-330,330l24.2,24.2
					L1682.6,3016.8"/>
				<path id="path388" inkscape:connector-curvature="0" class="st0" d="M1621.3,2955.6l-28.9-28.9l-329.9,329.9l28.9,28.9
					L1621.3,2955.6"/>
				<path id="path390" inkscape:connector-curvature="0" class="st3" d="M1609.2,2944.1l-116.7,116.7l330,329.9l116.6-116.6
					L1609.2,2944.1"/>
				<path id="path392" inkscape:connector-curvature="0" class="st0" d="M1582.6,2970.7l-24.1,24.1l329.9,330l24.2-24.2
					L1582.6,2970.7"/>
				<path id="path394" inkscape:connector-curvature="0" class="st0" d="M1521.4,3032l-28.9,28.9l330,330l28.9-28.9L1521.4,3032"/>
				<path id="path396" inkscape:connector-curvature="0" class="st2" d="M1747.5,2927.5c0-84.2-68.3-152.5-152.5-152.5
					s-152.5,68.2-152.5,152.5S1510.7,3080,1595,3080S1747.5,3011.7,1747.5,2927.5"/>
				<path id="path398" inkscape:connector-curvature="0" class="st4" d="M1747.5,2941.3c0-84.2-68.3-152.5-152.5-152.5
					s-152.5,68.2-152.5,152.5s68.2,152.5,152.5,152.5S1747.5,3025.5,1747.5,2941.3"/>
				<path id="path400" inkscape:connector-curvature="0" class="st3" d="M1703.1,2941.3c0-59.7-48.4-108-108.1-108
					s-108,48.3-108,108c0,59.7,48.3,108.1,108,108.1C1654.6,3049.4,1703.1,3000.9,1703.1,2941.3"/>
				<path id="path402" inkscape:connector-curvature="0" class="st10" d="M1598.9,2992l16.9-34.1l37.7-5.5l-27.3-26.6l6.4-37.5
					l-33.8,17.7l-33.7-17.7l6.4,37.5l-27.3,26.6l37.7,5.5L1598.9,2992"/>
				<path id="path404" inkscape:connector-curvature="0" class="st25" d="M1565,2909.5c-25.2,0-45.5,20.3-45.5,45.5
					c0,25.2,20.3,45.5,45.5,45.5c12.3,0,23.6-4.9,31.8-12.9l-14.7-29.7l-37.7-5.5l27.3-26.6l-2.7-16.1
					C1567.6,2909.6,1566.3,2909.5,1565,2909.5"/>
				<path id="path406" inkscape:connector-curvature="0" class="st26" d="M1568.9,2909.7l2.7,16.1l-27.3,26.6l37.7,5.5l14.7,29.7
					c8.5-8.3,13.8-19.8,13.8-32.6C1610.5,2931.2,1592.2,2911.6,1568.9,2909.7"/>
				<path id="path408" inkscape:connector-curvature="0" class="st2" d="M1595,3049.3c-59.7,0-108-48.4-108-108
					c0-33,14.8-62.6,38.1-82.4c-18.8,18.2-30.5,43.8-30.5,72.1c0,55.4,44.9,100.4,100.4,100.4c55.4,0,100.4-44.9,100.4-100.4
					c0-28.3-11.7-53.8-30.5-72.1c23.3,19.8,38.1,49.4,38.1,82.4C1703,3001,1654.7,3049.3,1595,3049.3"/>
			</g>
		</g>
	</g>
	<path id="path422" inkscape:connector-curvature="0" class="st0" d="M-327.1,314.1c0-31.5-25.6-57.1-57.1-57.1
		s-57.1,25.6-57.1,57.1c0,31.5,25.6,57.1,57.1,57.1S-327.1,345.7-327.1,314.1"/>
	<path id="path424" inkscape:connector-curvature="0" class="st1" d="M-333.4,314.1c0-28-22.7-50.8-50.8-50.8s-50.8,22.7-50.8,50.8
		c0,28,22.7,50.8,50.8,50.8C-356.2,364.9-333.4,342.2-333.4,314.1"/>
	<path id="path426" inkscape:connector-curvature="0" class="st5" d="M-358.8,314.3c-1.7,0-3.2,0.6-4.4,1.6c1.7,4.1,2.9,8.3,3.9,12
		c0.2,0,0.4,0.1,0.6,0.1c3.8,0,6.9-3.1,6.9-6.8C-352,317.4-355,314.3-358.8,314.3L-358.8,314.3z M-407.2,314.3
		c-3.8,0-6.9,3.1-6.9,6.8c0,3.8,3.1,6.8,6.9,6.8l0.1,0c0.8-3.8,2-8.2,3.6-12.5C-404.6,314.7-405.8,314.3-407.2,314.3L-407.2,314.3z
		 M-358.7,330.6c1.1,4.7,1.6,8,1.6,8h-51.7c0,0,0.3-3.3,1.3-8c-5.1-0.2-9.1-4.4-9.1-9.4c0-5.2,4.3-9.5,9.5-9.5
		c1.7,0,3.3,0.5,4.7,1.2c3.4-8.3,8.6-15.7,16.2-17c0-2.1-0.2-9.2-4.4-11.2h14.8c0,0-5.1,2.9-4.1,11.5c7,2,12.1,9.2,15.6,17.2
		c1.6-1.1,3.4-1.7,5.5-1.7c5.3,0,9.5,4.2,9.5,9.5C-349.3,326.4-353.5,330.6-358.7,330.6"/>
	<path id="path428" inkscape:connector-curvature="0" class="st6" d="M-357.2,338.6c0-3.7-11.6-6.6-25.9-6.6s-25.9,3-25.9,6.6
		c0,3.6,11.6,6.6,25.9,6.6S-357.2,342.3-357.2,338.6"/>
	<path id="path430" inkscape:connector-curvature="0" class="st7" d="M-359.3,339c0-3-10.6-5.4-23.7-5.4c-13.1,0-23.7,2.4-23.7,5.4
		c0,3,10.6,5.4,23.7,5.4C-369.9,344.4-359.3,342-359.3,339"/>
	<path id="path432" inkscape:connector-curvature="0" class="st7" d="M-368.8,280.9c0-2-6.3-3.7-14.2-3.7s-14.2,1.7-14.2,3.7v1.7
		h28.3L-368.8,280.9"/>
	<path id="path434" inkscape:connector-curvature="0" class="st5" d="M-368.8,282.7c0-2-6.3-3.7-14.2-3.7s-14.2,1.7-14.2,3.7
		c0,2,6.3,3.7,14.2,3.7S-368.8,284.7-368.8,282.7"/>
	<path id="path436" inkscape:connector-curvature="0" class="st6" d="M-392,324.7c0-3.4-2.7-6.1-6.1-6.1c-3.4,0-6.1,2.7-6.1,6.1
		c0,3.4,2.7,6.1,6.1,6.1C-394.7,330.7-392,328-392,324.7"/>
	<path id="path438" inkscape:connector-curvature="0" class="st7" d="M-386.4,305.9c0.3,0,0.5,0.1,0.7,0.2c0.2,0.1,0.3,0.4,0.3,0.9
		v13c-0.2,0-0.4,0-0.6,0c-0.2,0-0.5-0.1-0.7-0.1c-0.2-0.1-0.4-0.2-0.6-0.3c-0.2-0.1-0.3-0.3-0.4-0.5h-0.5v4.9h0.5
		c0-0.2,0.1-0.4,0.3-0.5c0.2-0.1,0.5-0.1,0.7-0.1c0.4,0,0.8,0.1,1.1,0.4c0.3,0.3,0.4,0.6,0.4,1c0,0.4-0.1,0.6-0.3,0.7
		c-0.2,0.1-0.4,0.2-0.7,0.2v0.5h6.3v-0.5c-0.3-0.1-0.6-0.1-0.8-0.3c-0.2-0.1-0.3-0.3-0.3-0.6V307c0-0.4,0.1-0.7,0.3-0.9
		c0.2-0.1,0.4-0.2,0.7-0.2v-0.5h-6.4V305.9"/>
	<path id="path440" inkscape:connector-curvature="0" class="st4" d="M-363.3,306.3l2.8-5l5-2.8l-5-2.8l-2.8-5l-2.8,5l-5,2.8l5,2.8
		L-363.3,306.3"/>
	<path id="path442" inkscape:connector-curvature="0" class="st4" d="M-415.2,342.4l1.8-3.4l3.4-1.8l-3.4-1.8l-1.8-3.4l-1.8,3.4
		l-3.4,1.8l3.4,1.8L-415.2,342.4"/>
	<path id="path444" inkscape:connector-curvature="0" class="st4" d="M-366.2,322l1.2-2.2l2.2-1.2l-2.2-1.2l-1.2-2.2l-1.2,2.2
		l-2.2,1.2l2.2,1.2L-366.2,322"/>
	<path id="path458" inkscape:connector-curvature="0" class="st0" d="M-173.2,314.1c0-31.5-25.6-57.1-57.1-57.1
		s-57.1,25.6-57.1,57.1c0,31.5,25.6,57.1,57.1,57.1S-173.2,345.7-173.2,314.1"/>
	<path id="path460" inkscape:connector-curvature="0" class="st12" d="M-179.5,314.1c0-28-22.7-50.8-50.8-50.8s-50.8,22.7-50.8,50.8
		c0,28,22.7,50.8,50.8,50.8S-179.5,342.2-179.5,314.1"/>
	<path id="path462" inkscape:connector-curvature="0" class="st7" d="M-210.5,350l-43.6-43.3h16.2l-12.4-32.9l44.6,43.3h-16.2
		L-210.5,350"/>
	<path id="path464" inkscape:connector-curvature="0" class="st5" d="M-210.5,353l-43.6-43.3h16.2l-12.4-32.9l44.6,43.3h-16.2
		L-210.5,353"/>
	<path id="path466" inkscape:connector-curvature="0" class="st6" d="M-254.1,309.6h16.2l-0.1-0.3l16.8,10.7h-0.7l11.4,32.9
		L-254.1,309.6"/>
	<path id="path480" inkscape:connector-curvature="0" class="st8" d="M-19.3,314.1c0-31.5-25.6-57.1-57.1-57.1s-57.1,25.6-57.1,57.1
		c0,31.5,25.6,57.1,57.1,57.1S-19.3,345.7-19.3,314.1"/>
	<path id="path482" inkscape:connector-curvature="0" class="st6" d="M-25.6,314.1c0-28-22.7-50.8-50.8-50.8s-50.8,22.7-50.8,50.8
		c0,28,22.7,50.8,50.8,50.8S-25.6,342.2-25.6,314.1"/>
	<path id="path484" inkscape:connector-curvature="0" class="st27" d="M-85.6,332.3c0,0-25.8-12-25.8-36.8
		c0-15.6,28.4-15.1,35.2-14.7h0.2c0,0,36.5-1.8,36.5,14.7c0,24.8-25.8,36.8-25.8,36.8H-85.6"/>
	<path id="path486" inkscape:connector-curvature="0" class="st28" d="M-85.6,335.5c0,0-25.8-12-25.8-36.8
		c0-15.6,28.4-15.1,35.2-14.7h0.2c0,0,36.5-1.8,36.5,14.7c0,24.8-25.8,36.8-25.8,36.8H-85.6"/>
	<path id="path488" inkscape:connector-curvature="0" class="st12" d="M-78.5,283.9c-13,1.7-14.7,5.6-14.1,7.6
		c0.8,2.4,4.4,8.1,0.7,6.3c-3.7-1.7-3.3,1.3-3.3,1.3c1.1,20.4,25.9,29.9,25.9,29.9c-11.1-3-17.4,3-19.1,5c-6.7-3.9-23-15.6-23-35.3
		C-111.3,284.5-87.8,283.7-78.5,283.9"/>
	<path id="path490" inkscape:connector-curvature="0" class="st29" d="M-68.8,305.3c-0.3,0.7-0.6,1.2-1.1,1.7
		c-0.4,0.5-1,0.9-1.5,1.2c-0.6,0.3-1.1,0.7-1.7,0.9c-0.6,0.3-1.2,0.5-1.7,0.8c-0.6,0.2-1.1,0.5-1.5,0.8c-0.5,0.3-0.8,0.6-1.1,1
		c-0.3,0.4-0.4,0.8-0.4,1.3c0,0.3,0.1,0.6,0.2,0.9c0.1,0.3,0.3,0.5,0.6,0.8c0.2,0.2,0.5,0.4,0.9,0.5c0.4,0.1,0.8,0.2,1.3,0.2
		c0.6,0,1.2-0.1,1.7-0.2c0.5-0.2,1-0.3,1.4-0.5c0.4-0.2,0.7-0.4,1-0.5c0.3-0.2,0.5-0.2,0.6-0.2l0.3,0.1c0.1,0.1,0.1,0.2,0.2,0.3
		c0,0.1,0.1,0.3,0.1,0.6c0,0.2,0,0.5,0,0.8c0,0.3,0,0.5,0,0.7c0,0.2,0,0.4-0.1,0.5l-0.1,0.3l-0.2,0.3c-0.1,0.1-0.3,0.3-0.7,0.4
		c-0.4,0.2-0.8,0.3-1.2,0.5c-0.5,0.1-0.9,0.2-1.5,0.3l-0.3,0v2.8h-2.7v-2.8c-0.5-0.1-1-0.2-1.4-0.3c-0.9-0.3-1.7-0.7-2.4-1.2
		c-0.7-0.5-1.2-1.2-1.6-2c-0.4-0.8-0.6-1.7-0.6-2.8c0-0.9,0.1-1.7,0.4-2.4c0.3-0.7,0.6-1.2,1.1-1.7c0.4-0.5,0.9-0.9,1.5-1.2
		c0.6-0.4,1.1-0.7,1.7-0.9c0.6-0.3,1.2-0.5,1.7-0.8c0.6-0.2,1.1-0.5,1.5-0.8c0.4-0.3,0.8-0.6,1.1-1c0.3-0.4,0.4-0.8,0.4-1.3
		c0-0.4-0.1-0.8-0.2-1.2c-0.2-0.4-0.4-0.7-0.7-0.9c-0.3-0.2-0.7-0.4-1.1-0.6c-0.4-0.1-0.9-0.2-1.5-0.2c-0.8,0-1.6,0.1-2.2,0.3
		c-0.6,0.2-1.2,0.4-1.6,0.6c-0.5,0.2-0.8,0.4-1.1,0.6c-0.3,0.2-0.5,0.3-0.7,0.3l-0.3-0.1c-0.1-0.1-0.2-0.2-0.2-0.3
		c0-0.2-0.1-0.3-0.1-0.6c0-0.2,0-0.5,0-0.9c0-0.5,0-0.9,0.1-1.2c0.1-0.3,0.2-0.5,0.3-0.6c0.1-0.1,0.4-0.3,0.7-0.5
		c0.3-0.2,0.8-0.4,1.3-0.6c0.5-0.2,1.1-0.3,1.7-0.4c0.7-0.1,1.4-0.2,2.1-0.2l0.1,0v-2.6h2.7v3l0.4,0.1c1,0.3,1.9,0.7,2.6,1.3
		c0.7,0.6,1.3,1.3,1.8,2.2c0.4,0.9,0.6,1.9,0.6,3.1C-68.4,303.9-68.5,304.6-68.8,305.3"/>
	<path id="path492" inkscape:connector-curvature="0" class="st28" d="M-91.3,347.5c0,0,0.9-15.5,16.1-15.5S-60,347.5-60,347.5
		H-91.3"/>
	<path id="path494" inkscape:connector-curvature="0" class="st27" d="M-68.2,337.9c-1.3,0-1.6,3-1.6,3s-2.1-5.5-4-4.3
		c-1.9,1.2-6.3,5-6.3,5s3-5.8,0.3-5.8c-2.7,0-10.3,6.5-10.3,6.5l0,0c1.7-4.5,5.6-10.3,14.9-10.3c8.7,0,12.5,5.1,14.1,9.5
		C-63.5,340.1-67.3,337.9-68.2,337.9"/>
	<path id="path496" inkscape:connector-curvature="0" class="st12" d="M-60,347.5c0-1.5-7-2.7-15.7-2.7c-8.7,0-15.7,1.2-15.7,2.7
		c0,1.5,7,2.7,15.7,2.7C-67,350.2-60,349-60,347.5"/>
	<path id="path498" inkscape:connector-curvature="0" class="st27" d="M-62.3,347.8c0-0.9-6-1.6-13.3-1.6c-7.4,0-13.3,0.7-13.3,1.6
		c0,0.9,6,1.6,13.3,1.6C-68.3,349.4-62.3,348.6-62.3,347.8"/>
	<path id="path500" inkscape:connector-curvature="0" class="st0" d="M-62.3,335.3c0,0-0.9,1.4-1.8,1.4c0,0-3-4.7-11.1-4.7
		c-8.1,0-11.2,4.3-11.4,4.7c0,0-3.6-0.4-2.1-2.8c1.3-2.1,9.2-4.8,22.6-2c0.3-0.6,5.4-11.1,7.8-9.7c2.4,1.4-4.4,9.9-4.8,10.4
		c0.7,0.2,1.4,0.4,2.1,0.6c0,0,13.2-4.1,13.8-1.7C-46.5,333.9-60.4,335.3-62.3,335.3"/>
	<path id="path514" inkscape:connector-curvature="0" class="st0" d="M-634.9,136.4c0-31.5-25.6-57.1-57.1-57.1
		c-31.5,0-57.1,25.6-57.1,57.1c0,31.5,25.6,57.1,57.1,57.1S-634.9,168-634.9,136.4"/>
	<path id="path516" inkscape:connector-curvature="0" class="st1" d="M-641.2,136.4c0-28-22.7-50.8-50.8-50.8
		c-28,0-50.8,22.7-50.8,50.8c0,28,22.7,50.8,50.8,50.8C-664,187.2-641.2,164.5-641.2,136.4"/>
	<path id="path518" inkscape:connector-curvature="0" class="st30" d="M-660.4,104.7l-13.1-8.1l-30.8,49.9l13.1,8.1L-660.4,104.7"/>
	<path id="path520" inkscape:connector-curvature="0" class="st0" d="M-661.8,106.9l-11.8-7.3l-30.8,49.9l11.8,7.3L-661.8,106.9"/>
	<path id="path522" inkscape:connector-curvature="0" class="st31" d="M-688,123.1l6.5,15.8l-4.2,6.9l-6.5-15.8L-688,123.1"/>
	<path id="path524" inkscape:connector-curvature="0" class="st31" d="M-680,110.3l6.5,15.8l-4.2,6.9l-6.5-15.8L-680,110.3"/>
	<path id="path526" inkscape:connector-curvature="0" class="st31" d="M-669.6,119.7l-6.5-15.8l2.6-4.2l3.6,2.2l4.5,10.9
		L-669.6,119.7"/>
	<path id="path528" inkscape:connector-curvature="0" class="st3" d="M-672.9,153.7l1.3,5.5l-10.5,17l-6,1.4l-36.3-22.4l-1.4-6
		l10.5-17l5.5-1.3L-672.9,153.7"/>
	<path id="path530" inkscape:connector-curvature="0" class="st32" d="M-724.4,155.2l-1.4-6l10.5-17l5.5-1.3l0,0l21,46.2
		L-724.4,155.2"/>
	<path id="path532" inkscape:connector-curvature="0" class="st2" d="M-724.1,155.4l-0.3-0.2l-1.4-6l10.5-17l5.5-1.3l0.7,0.4
		L-724.1,155.4"/>
	<path id="path534" inkscape:connector-curvature="0" class="st2" d="M-688.5,177.4l14.8-24.1l0.7,0.4l1.3,5.5l-10.5,17l-6,1.4
		L-688.5,177.4"/>
	<path id="path536" inkscape:connector-curvature="0" class="st2" d="M-692.9,158.3c2.1-3.4,1-7.9-2.4-10c-3.4-2.1-7.9-1-10,2.4
		c-2.1,3.4-1,7.9,2.4,10C-699.5,162.8-695,161.7-692.9,158.3"/>
	<path id="path538" inkscape:connector-curvature="0" class="st0" d="M-695.3,148.4c0.4,0.2,0.7,0.5,1,0.8
		C-694.6,148.9-694.9,148.6-695.3,148.4L-695.3,148.4L-695.3,148.4z M-702.9,160.7c-3.4-2.1-4.5-6.6-2.4-10c2.1-3.4,6.6-4.5,10-2.4
		l0,0c-3-1.8-6.9-0.9-8.8,2.1c-1.8,3-0.9,6.9,2.1,8.8c3,1.8,6.9,0.9,8.8-2.1c1.6-2.6,1.1-5.9-1-8c2.5,2.3,3.1,6.1,1.3,9.1
		C-695,161.7-699.5,162.8-702.9,160.7"/>
	<path id="path540" inkscape:connector-curvature="0" class="st0" d="M-699.1,150.5l-1.8,0.9l3.1,6.1l1.8-0.9L-699.1,150.5"/>
	<path id="path554" inkscape:connector-curvature="0" class="st8" d="M-481,136.4c0-31.5-25.6-57.1-57.1-57.1s-57.1,25.6-57.1,57.1
		c0,31.5,25.6,57.1,57.1,57.1S-481,168-481,136.4"/>
	<path id="path556" inkscape:connector-curvature="0" class="st6" d="M-487.3,136.4c0-28-22.7-50.8-50.8-50.8s-50.8,22.7-50.8,50.8
		c0,28,22.7,50.8,50.8,50.8C-510.1,187.2-487.3,164.5-487.3,136.4"/>
	<path id="path558" inkscape:connector-curvature="0" class="st30" d="M-510.2,97.9l-11.6-7l-12.5,20.7l11.6,7L-510.2,97.9"/>
	<path id="path560" inkscape:connector-curvature="0" class="st0" d="M-511.4,99.7l-10.6-6.4l-11.9,19.7l10.6,6.4L-511.4,99.7"/>
	<path id="path562" inkscape:connector-curvature="0" class="st3" d="M-536.9,118.4l-26.6,31l0.5,23.7l20.6-10.5l15.5-38
		L-536.9,118.4"/>
	<path id="path564" inkscape:connector-curvature="0" class="st32" d="M-535.2,119.5l-24.5,32.2l-3.3,21.4l10.1-16.8l20.9-34.7
		L-535.2,119.5"/>
	<path id="path566" inkscape:connector-curvature="0" class="st31" d="M-523.9,96.4l10.6,6.4l-2.3,3.8l-10.6-6.4L-523.9,96.4"/>
	<path id="path568" inkscape:connector-curvature="0" class="st31" d="M-528.2,103.6l10.6,6.4l-2.3,3.8l-10.6-6.4L-528.2,103.6"/>
	<path id="path570" inkscape:connector-curvature="0" class="st3" d="M-552.5,155.1c-0.7-0.4-0.9-1.3-0.5-1.9l19.6-32.5l2.4,1.5
		l-19.6,32.5C-551,155.3-551.8,155.5-552.5,155.1"/>
	<path id="path572" inkscape:connector-curvature="0" class="st6" d="M-531.5,121.8l-18.7,31c-0.4,0.7-1,1-1.4,0.8
		c-0.4-0.2-0.3-0.9,0.1-1.6l18.7-31L-531.5,121.8"/>
	<path id="path574" inkscape:connector-curvature="0" class="st12" d="M-518.6,121.1l0.9,3.7l-0.9,1.4l-4,1l-18.8-11.5l-1-4l0.9-1.4
		l3.7-0.9L-518.6,121.1"/>
	<path id="path576" inkscape:connector-curvature="0" class="st28" d="M-541.3,115.7l-0.2-0.1l-1-4l0.9-1.4l3.7-0.9l0.4,0.2
		L-541.3,115.7"/>
	<path id="path578" inkscape:connector-curvature="0" class="st28" d="M-522.7,127.1l-0.2-0.1l3.8-6.3l0.5,0.3l0.9,3.7l-0.9,1.4
		L-522.7,127.1"/>
	<path id="path592" inkscape:connector-curvature="0" class="st1" d="M-327.1,136.4c0-31.5-25.6-57.1-57.1-57.1
		s-57.1,25.6-57.1,57.1c0,31.5,25.6,57.1,57.1,57.1S-327.1,168-327.1,136.4"/>
	<path id="path594" inkscape:connector-curvature="0" class="st0" d="M-333.4,136.4c0-28-22.7-50.8-50.8-50.8s-50.8,22.7-50.8,50.8
		c0,28,22.7,50.8,50.8,50.8C-356.2,187.2-333.4,164.5-333.4,136.4"/>
	<path id="path596" inkscape:connector-curvature="0" class="st27" d="M-410.9,115.1h55.2v53.5h-55.2
		C-410.9,168.6-410.9,115.1-410.9,115.1z"/>
	<path id="path598" inkscape:connector-curvature="0" class="st12" d="M-410.9,116.8h55.2V171h-55.2
		C-410.9,171-410.9,116.8-410.9,116.8z"/>
	<path id="path600" inkscape:connector-curvature="0" class="st27" d="M-410.9,106h55.2v2.5h-55.2V106z"/>
	<path id="path602" inkscape:connector-curvature="0" class="st12" d="M-410.9,104.4h55.2v3h-55.2V104.4z"/>
	<path id="path604" inkscape:connector-curvature="0" class="st28" d="M-410.9,104.4h7.1V171h-7.1V104.4z"/>
	<path id="path606" inkscape:connector-curvature="0" class="st4" d="M-407.1,108.6h49.6v6.6h-49.6L-407.1,108.6L-407.1,108.6z"/>
	<path id="path608" inkscape:connector-curvature="0" class="st27" d="M-392.8,145c0-0.5,0-0.9,0.1-1.2c0.1-0.3,0.2-0.6,0.3-0.8
		c0.1-0.2,0.3-0.4,0.5-0.5c0.2-0.1,0.4-0.2,0.7-0.2c0.3,0,0.5,0.1,0.6,0.2c0.2,0.1,0.3,0.3,0.4,0.4c0.1,0.2,0.2,0.5,0.3,0.8
		c0.1,0.3,0.1,0.7,0.1,1.1c0,0.5,0,0.9-0.1,1.3c-0.1,0.4-0.2,0.7-0.3,0.9c-0.1,0.2-0.2,0.4-0.4,0.5c-0.2,0.1-0.4,0.2-0.7,0.2
		c-0.2,0-0.4,0-0.7-0.1c-0.2-0.1-0.4-0.2-0.5-0.5s-0.2-0.5-0.3-0.8C-392.7,145.9-392.8,145.5-392.8,145L-392.8,145z M-388,145
		c0-0.6-0.1-1.1-0.2-1.6c-0.2-0.5-0.4-0.9-0.7-1.2c-0.5-0.6-1.2-0.8-2-0.8c-0.4,0-0.8,0.1-1.2,0.3c-0.3,0.2-0.6,0.6-0.9,1.1
		l-0.4-1.3h-1v8.9l-1,0.2v0.7h2.6v-3.8c0.3,0.3,0.5,0.5,0.9,0.7c0.3,0.1,0.7,0.2,1.1,0.2c0.4,0,0.8-0.1,1.2-0.2
		c0.4-0.1,0.6-0.3,0.9-0.6c0.3-0.3,0.5-0.7,0.6-1.2C-388.1,146.1-388,145.6-388,145"/>
	<path id="path610" inkscape:connector-curvature="0" class="st27" d="M-384.9,142.8c0.2-0.3,0.6-0.5,1.2-0.5c0.5,0,0.9,0.2,1.2,0.5
		c0.3,0.4,0.4,1.1,0.4,2.2s-0.1,1.8-0.4,2.2c-0.2,0.3-0.6,0.5-1.2,0.5s-0.9-0.2-1.2-0.5c-0.3-0.4-0.4-1.1-0.4-2.2
		S-385.2,143.2-384.9,142.8z M-380.4,145c0-0.5-0.1-1.1-0.2-1.5c-0.2-0.5-0.4-0.9-0.7-1.2c-0.3-0.3-0.6-0.5-1-0.6
		c-0.4-0.1-0.9-0.2-1.4-0.2s-1,0.1-1.4,0.2c-0.4,0.1-0.7,0.3-1,0.6c-0.3,0.3-0.5,0.7-0.7,1.2c-0.2,0.5-0.2,1-0.2,1.5
		c0,0.5,0.1,1.1,0.2,1.5c0.2,0.5,0.4,0.9,0.7,1.2c0.3,0.3,0.6,0.5,1,0.6c0.4,0.1,0.9,0.2,1.4,0.2s1-0.1,1.4-0.2
		c0.4-0.1,0.7-0.3,1-0.6c0.3-0.3,0.5-0.7,0.7-1.2C-380.5,146-380.4,145.5-380.4,145"/>
	<path id="path612" inkscape:connector-curvature="0" class="st27" d="M-377.4,142.8c0.2-0.3,0.6-0.5,1.2-0.5s0.9,0.2,1.2,0.5
		c0.3,0.4,0.4,1.1,0.4,2.2s-0.1,1.8-0.4,2.2c-0.2,0.3-0.6,0.5-1.2,0.5c-0.5,0-0.9-0.2-1.2-0.5c-0.3-0.4-0.4-1.1-0.4-2.2
		S-377.6,143.2-377.4,142.8z M-372.9,145c0-0.5-0.1-1.1-0.2-1.5c-0.2-0.5-0.4-0.9-0.7-1.2c-0.3-0.3-0.6-0.5-1-0.6
		c-0.4-0.1-0.9-0.2-1.4-0.2s-1,0.1-1.4,0.2c-0.4,0.1-0.7,0.3-1,0.6c-0.3,0.3-0.5,0.7-0.7,1.2c-0.2,0.5-0.2,1-0.2,1.5
		c0,0.5,0.1,1.1,0.2,1.5c0.2,0.5,0.4,0.9,0.7,1.2c0.3,0.3,0.6,0.5,1,0.6c0.4,0.1,0.9,0.2,1.4,0.2s1-0.1,1.4-0.2
		c0.4-0.1,0.7-0.3,1-0.6c0.3-0.3,0.5-0.7,0.7-1.2C-373,146-372.9,145.5-372.9,145"/>
	<path id="path614" inkscape:connector-curvature="0" class="st27" d="M-367.2,142.5l-1.7,2.2l-0.7-0.6v-1.6l1-0.2v-0.7h-3.6v0.7
		l1,0.2v8l-1,0.2v0.7h2.6v-6.3l2.2,2.3l-0.7,0.2v0.7h3.1v-0.7l-1.1-0.2l-1.7-1.8l2.4-3.2l0.7-0.2v-0.7h-3.2v0.7L-367.2,142.5"/>
	<path id="path628" inkscape:connector-curvature="0" class="st0" d="M-173.2,136.4c0-31.5-25.6-57.1-57.1-57.1
		s-57.1,25.6-57.1,57.1c0,31.5,25.6,57.1,57.1,57.1S-173.2,168-173.2,136.4"/>
	<path id="path630" inkscape:connector-curvature="0" class="st8" d="M-179.5,136.4c0-28-22.7-50.8-50.8-50.8s-50.8,22.7-50.8,50.8
		c0,28,22.7,50.8,50.8,50.8S-179.5,164.5-179.5,136.4"/>
	<path id="path632" inkscape:connector-curvature="0" class="st7" d="M-265.2,121.6c0,0,58.1-23.6,64.4-16c6.3,7.5-16.3,71-16.3,71
		S-260.1,175.3-265.2,121.6"/>
	<path id="path634" inkscape:connector-curvature="0" class="st33" d="M-264.6,126.4c-0.2-1.6-0.4-3.2-0.6-4.8c0,0,2-0.8,5.4-2.1
		c0.2,2.6,0.6,4.8,0.6,4.8L-264.6,126.4"/>
	<path id="path636" inkscape:connector-curvature="0" class="st5" d="M-264.6,126.3c15.1-5.8,50.8-18.9,64.8-18.1
		c2.1,14.1-17.3,68.4-17.3,68.4S-257.6,175.4-264.6,126.3"/>
	<path id="path638" inkscape:connector-curvature="0" class="st6" d="M-217.1,176.5c-3.2-0.3-12.7-1.7-22.8-7.7
		c-10.5-6.7-21.4-19.2-24.7-42.5c1.6-0.6,3.4-1.3,5.4-2.1c3.1,9.9,13.2,30.7,45.3,42.8C-215.6,172.3-216.9,175.9-217.1,176.5"/>
	<path id="path640" inkscape:connector-curvature="0" class="st9" d="M-238.4,130c0-2.7-2.2-4.8-4.8-4.8c-2.7,0-4.8,2.2-4.8,4.8
		c0,2.7,2.2,4.8,4.8,4.8C-240.6,134.9-238.4,132.7-238.4,130"/>
	<path id="path642" inkscape:connector-curvature="0" class="st10" d="M-238.4,131.6c0-2.7-2.2-4.8-4.8-4.8c-2.7,0-4.8,2.2-4.8,4.8
		c0,2.7,2.2,4.8,4.8,4.8C-240.6,136.5-238.4,134.3-238.4,131.6"/>
	<path id="path644" inkscape:connector-curvature="0" class="st9" d="M-209,124c0-4.3-3.4-7.7-7.7-7.7c-4.3,0-7.7,3.4-7.7,7.7
		c0,4.3,3.4,7.7,7.7,7.7C-212.5,131.7-209,128.3-209,124"/>
	<path id="path646" inkscape:connector-curvature="0" class="st10" d="M-209,125.7c0-4.3-3.4-7.7-7.7-7.7c-4.3,0-7.7,3.4-7.7,7.7
		c0,4.2,3.4,7.7,7.7,7.7C-212.5,133.4-209,130-209,125.7"/>
	<path id="path648" inkscape:connector-curvature="0" class="st9" d="M-211.2,145.8c0-2.9-2.4-5.3-5.3-5.3s-5.3,2.4-5.3,5.3
		c0,2.9,2.4,5.3,5.3,5.3S-211.2,148.7-211.2,145.8"/>
	<path id="path650" inkscape:connector-curvature="0" class="st10" d="M-211.2,147.5c0-2.9-2.4-5.3-5.3-5.3s-5.3,2.4-5.3,5.3
		c0,2.9,2.4,5.3,5.3,5.3S-211.2,150.4-211.2,147.5"/>
	<path id="path652" inkscape:connector-curvature="0" class="st28" d="M-230.4,149.4c0,0-1.5-5.8,3.8-7.3c0,0-4.9-3-6.8,0
		C-235.3,145.1-230.4,149.4-230.4,149.4"/>
	<path id="path654" inkscape:connector-curvature="0" class="st28" d="M-211.8,115c0,0,5.9-0.7,6.6,4.8c0,0,3.7-4.4,1-6.8
		C-206.8,110.7-211.8,115-211.8,115"/>
	<path id="path656" inkscape:connector-curvature="0" class="st28" d="M-228.5,132.1c0,0-6.1-4.1-2.6-10.3c0,0-6.6,3.1-4.4,7.8
		C-233.3,134.4-229.9,132.4-228.5,132.1"/>
	<path id="path670" inkscape:connector-curvature="0" class="st8" d="M-19.3,136.4c0-31.5-25.6-57.1-57.1-57.1s-57.1,25.6-57.1,57.1
		c0,31.5,25.6,57.1,57.1,57.1S-19.3,168-19.3,136.4"/>
	<path id="path672" inkscape:connector-curvature="0" class="st6" d="M-25.6,136.4c0-28-22.7-50.8-50.8-50.8s-50.8,22.7-50.8,50.8
		c0,28,22.7,50.8,50.8,50.8S-25.6,164.5-25.6,136.4"/>
	<path id="path674" inkscape:connector-curvature="0" class="st8" d="M-102.3,132.2h50.4v8.3h-50.4V132.2z"/>
	<path id="path676" inkscape:connector-curvature="0" class="st34" d="M-102.3,113c0,0,3.2-1.1,15.1,10.3
		c11.9,11.4,18.2,17.1,33.7,17.1v-9.9c0,0-8.9,1.5-22-10.9c-13.1-12.4-17.7-16.4-26.8-16.4L-102.3,113"/>
	<path id="path678" inkscape:connector-curvature="0" class="st35" d="M-53.5,141.1c0,0-3.2-1.1-15.1,10.3
		c-11.9,11.4-18.2,17.1-33.7,17.1v-9.9c0,0,8.9,1.5,22-10.9c13.1-12.4,17.4-16.4,26.8-16.4L-53.5,141.1"/>
	<path id="path680" inkscape:connector-curvature="0" class="st36" d="M-53.5,131.2v9.8h0c-0.1,0-0.3,0-0.7,0l-0.1,0l-8.1-8.1
		C-59.6,131.7-56.9,131.2-53.5,131.2"/>
	<path id="path682" inkscape:connector-curvature="0" class="st35" d="M-54.3,148.5l16.9-12.8l-16.9-12.8V148.5"/>
	<path id="path696" inkscape:connector-curvature="0" class="st8" d="M-634.9-38.1c0-31.5-25.6-57.1-57.1-57.1
		c-31.5,0-57.1,25.6-57.1,57.1c0,31.5,25.6,57.1,57.1,57.1S-634.9-6.6-634.9-38.1"/>
	<path id="path698" inkscape:connector-curvature="0" class="st6" d="M-641.2-38.1c0-28-22.7-50.8-50.8-50.8
		c-28,0-50.8,22.7-50.8,50.8c0,28,22.7,50.8,50.8,50.8C-664,12.7-641.2-10.1-641.2-38.1"/>
	<path id="path700" inkscape:connector-curvature="0" class="st2" d="M-662.6-13.2l-1.1-24.1h-20l-2.5,0l8,8.1
		c-3.6,3.5-8.3,5.4-13.4,5.4c-10.5-0.1-19.1-8.7-19.1-19.3c0.1-10.5,8.6-19,19.2-19c6.9,0.4,13.4,4.5,16.6,11.3l9.8-4.5l-0.1-0.1
		c-6.7-13-17.4-18.5-28.8-17.4c-15.3,1.2-27.5,14.1-27.6,29.9c0,16.4,13.4,29.9,29.8,30h0.1l0.1,0c7.8,0,15.3-3.1,20.9-8.5l6.2,6.2
		L-662.6-13.2"/>
	<path id="path702" inkscape:connector-curvature="0" class="st3" d="M-662.6-10l-1.1-24.1h-20l-2.5,0l8,8.1
		c-3.6,3.5-8.3,5.4-13.4,5.4c-10.5-0.1-19.1-8.7-19.1-19.3c0.1-10.5,8.6-19,19.2-19c6.9,0.4,13.4,4.5,16.6,11.3l9.8-4.5l-0.1-0.1
		c-6.7-13-17.4-18.5-28.8-17.4c-15.3,1.2-27.5,14.1-27.6,29.9c0,16.4,13.4,29.9,29.8,30h0.1l0.1,0c7.8,0,15.3-3.1,20.9-8.5l6.2,6.2
		L-662.6-10"/>
	<path id="path704" inkscape:connector-curvature="0" class="st4" d="M-662.6-10l-1.8-2.1l-6.2-6.2c-5.6,5.4-13.1,8.6-20.9,8.6
		l-0.1,0h-0.1c-16.4,0-29.8-13.7-29.8-30.1c0-5.2,1.4-10.1,3.8-14.4l9.2,5.7c-1.3,2.6-2.1,5.4-2.1,8.5c0,10.7,8.6,19.3,19.1,19.3
		c5.1,0,9.8-1.9,13.4-5.4l-8-8.1l0.7,0l22.4,14L-662.6-10"/>
	<path id="path718" inkscape:connector-curvature="0" class="st0" d="M-481-38.1c0-31.5-25.6-57.1-57.1-57.1s-57.1,25.6-57.1,57.1
		c0,31.5,25.6,57.1,57.1,57.1S-481-6.6-481-38.1"/>
	<path id="path720" inkscape:connector-curvature="0" class="st1" d="M-487.3-38.1c0-28-22.7-50.8-50.8-50.8s-50.8,22.7-50.8,50.8
		c0,28,22.7,50.8,50.8,50.8C-510.1,12.7-487.3-10.1-487.3-38.1"/>
	<path id="path722" inkscape:connector-curvature="0" class="st37" d="M-526.8-35.9v11.1c0,3.8-3.1,6.9-6.9,6.9h-8.3
		c-3.8,0-6.9-3.1-6.9-6.9v-11.1c0-3.8,3.1-6.9,6.9-6.9h-6.9c-3.8,0-6.9,3.1-6.9,6.9v18c0,3.8,3.1,6.9,6.9,6.9h22.1
		c3.8,0,6.9-3.1,6.9-6.9v-18L-526.8-35.9"/>
	<path id="path724" inkscape:connector-curvature="0" class="st20" d="M-526.8-33.2v11.1c0,3.8-3.1,6.9-6.9,6.9h-8.3
		c-3.8,0-6.9-3.1-6.9-6.9v-11.1c0-3.8,3.1-6.9,6.9-6.9h-6.9c-3.8,0-6.9,3.1-6.9,6.9v18c0,3.8,3.1,6.9,6.9,6.9h22.1
		c3.8,0,6.9-3.1,6.9-6.9v-18H-526.8"/>
	<path id="path726" inkscape:connector-curvature="0" class="st38" d="M-535.1-53.7v-5.8h-4.2v5.5c-1.9,0.7-3.3,2.6-3.3,4.8
		c0,2.8,2.3,5.1,5.1,5.1c2.8,0,5.1-2.3,5.1-5.1C-532.3-51.1-533.4-52.8-535.1-53.7 M-514.5-33.2h-45.4c-2.4,0-4.3-1.9-4.3-4.3v-26
		c0-2.4,1.9-4.3,4.3-4.3h45.4c2.4,0,4.3,1.9,4.3,4.3v26C-510.2-35.1-512.1-33.2-514.5-33.2"/>
	<path id="path728" inkscape:connector-curvature="0" class="st39" d="M-535.1-50.9v-5.8h-4.2v5.5c-1.9,0.7-3.3,2.6-3.3,4.8
		c0,2.8,2.3,5.1,5.1,5.1c2.8,0,5.1-2.3,5.1-5.1C-532.3-48.4-533.4-50.1-535.1-50.9 M-514.5-30.4h-45.4c-2.4,0-4.3-1.9-4.3-4.3v-26
		c0-2.4,1.9-4.3,4.3-4.3h45.4c2.4,0,4.3,1.9,4.3,4.3v26C-510.2-32.3-512.1-30.4-514.5-30.4"/>
	<path id="path742" inkscape:connector-curvature="0" class="st0" d="M-327.1-38.1c0-31.5-25.6-57.1-57.1-57.1s-57.1,25.6-57.1,57.1
		c0,31.5,25.6,57.1,57.1,57.1S-327.1-6.6-327.1-38.1"/>
	<path id="path744" inkscape:connector-curvature="0" class="st8" d="M-333.4-38.1c0-28-22.7-50.8-50.8-50.8S-435-66.1-435-38.1
		c0,28,22.7,50.8,50.8,50.8C-356.2,12.7-333.4-10.1-333.4-38.1"/>
	<path id="path746" inkscape:connector-curvature="0" class="st2" d="M-355.1-22.1l-10.4,10.4c0,0-16.6-17.6-17.7-17.6
		c-1.1,0-17.7,17.6-17.7,17.6l-10.4-10.4c0,0,17.7-16.2,17.7-17.7c0-1.4-17.7-17.7-17.7-17.7l10.4-10.4c0,0,16.5,17.7,17.7,17.7
		c1.2,0,17.7-17.7,17.7-17.7l10.4,10.4c0,0-17.7,16.5-17.7,17.7C-372.8-38.5-355.1-22.1-355.1-22.1"/>
	<path id="path748" inkscape:connector-curvature="0" class="st3" d="M-355.1-18.9l-10.4,10.4c0,0-16.6-17.6-17.7-17.6
		c-1.1,0-17.7,17.6-17.7,17.6l-10.4-10.4c0,0,17.7-16.2,17.7-17.7c0-1.4-17.7-17.7-17.7-17.7l10.4-10.4c0,0,16.5,17.7,17.7,17.7
		c1.2,0,17.7-17.7,17.7-17.7l10.4,10.4c0,0-17.7,16.5-17.7,17.7C-372.8-35.3-355.1-18.9-355.1-18.9"/>
	<path id="path750" inkscape:connector-curvature="0" class="st4" d="M-383.2-26.1c-1.1,0-17.7,17.6-17.7,17.6l-10.4-10.4
		c0,0,17.7-16.2,17.7-17.7c0-1.4-17.7-17.7-17.7-17.7l0.9-0.9l51.2,32.6c2.3,2.2,3.9,3.7,3.9,3.7l-10.4,10.4
		C-365.5-8.5-382.1-26.1-383.2-26.1"/>
	<path id="path764" inkscape:connector-curvature="0" class="st1" d="M-173.2-38.1c0-31.5-25.6-57.1-57.1-57.1s-57.1,25.6-57.1,57.1
		c0,31.5,25.6,57.1,57.1,57.1S-173.2-6.6-173.2-38.1"/>
	<path id="path766" inkscape:connector-curvature="0" class="st0" d="M-179.5-38.1c0-28-22.7-50.8-50.8-50.8s-50.8,22.7-50.8,50.8
		c0,28,22.7,50.8,50.8,50.8S-179.5-10.1-179.5-38.1"/>
	<path id="path768" inkscape:connector-curvature="0" class="st37" d="M-220.2-24.4v11.1c0,3.8-3.1,6.9-6.9,6.9h-8.3
		c-3.8,0-6.9-3.1-6.9-6.9v-23.8c0-3.8,3.1-6.9,6.9-6.9h-6.9c-3.8,0-6.9,3.1-6.9,6.9v30.7c0,3.8,3.1,6.9,6.9,6.9h22.1
		c3.8,0,6.9-3.1,6.9-6.9v-18L-220.2-24.4"/>
	<path id="path770" inkscape:connector-curvature="0" class="st20" d="M-220.2-21.7v11.1c0,3.8-3.1,6.9-6.9,6.9h-8.3
		c-3.8,0-6.9-3.1-6.9-6.9v-23.8c0-3.8,3.1-6.9,6.9-6.9h-6.9c-3.8,0-6.9,3.1-6.9,6.9v30.7c0,3.8,3.1,6.9,6.9,6.9h22.1
		c3.8,0,6.9-3.1,6.9-6.9v-18L-220.2-21.7"/>
	<path id="path772" inkscape:connector-curvature="0" class="st38" d="M-228.9-53.7v-5.8h-4.1v5.5c-1.9,0.7-3.3,2.6-3.3,4.8
		c0,2.8,2.3,5.1,5.1,5.1c2.8,0,5.1-2.3,5.1-5.1C-226.1-51.1-227.2-52.8-228.9-53.7 M-208.3-33.2h-45.4c-2.4,0-4.3-1.9-4.3-4.3v-26
		c0-2.4,1.9-4.3,4.3-4.3h45.4c2.4,0,4.3,1.9,4.3,4.3v26C-204-35.1-205.9-33.2-208.3-33.2"/>
	<path id="path774" inkscape:connector-curvature="0" class="st39" d="M-228.9-50.9v-5.8h-4.1v5.5c-1.9,0.7-3.3,2.6-3.3,4.8
		c0,2.8,2.3,5.1,5.1,5.1c2.8,0,5.1-2.3,5.1-5.1C-226.1-48.4-227.2-50.1-228.9-50.9 M-208.3-30.4h-45.4c-2.4,0-4.3-1.9-4.3-4.3v-26
		c0-2.4,1.9-4.3,4.3-4.3h45.4c2.4,0,4.3,1.9,4.3,4.3v26C-204-32.3-205.9-30.4-208.3-30.4"/>
	<path id="path788" inkscape:connector-curvature="0" class="st0" d="M-19.3-38.1c0-31.5-25.6-57.1-57.1-57.1s-57.1,25.6-57.1,57.1
		C-133.5-6.6-108,19-76.4,19S-19.3-6.6-19.3-38.1"/>
	<path id="path790" inkscape:connector-curvature="0" class="st12" d="M-25.6-38.1c0-28-22.7-50.8-50.8-50.8s-50.8,22.7-50.8,50.8
		c0,28,22.7,50.8,50.8,50.8S-25.6-10.1-25.6-38.1"/>
	<path id="path792" inkscape:connector-curvature="0" class="st2" d="M-38-24.4L-48.4-14c0,0-35.5-38.3-36.6-38.3
		c-1.1,0-17.7,17.6-17.7,17.6L-113.1-45L-85-73.9L-38-24.4"/>
	<path id="path794" inkscape:connector-curvature="0" class="st3" d="M-38-21.2l-10.4,10.4c0,0-35.5-38.3-36.6-38.3
		c-1.1,0-17.7,17.6-17.7,17.6l-10.4-10.4L-85-70.8L-38-21.2"/>
	<path id="path796" inkscape:connector-curvature="0" class="st4" d="M-85-49.1c-1.1,0-17.7,17.6-17.7,17.6l-10.4-10.4l16.3-16.7
		l57.9,36.5l0.9,0.9l-10.4,10.4C-48.4-10.8-84-49.1-85-49.1"/>
</g>
<path id="path286_1_" inkscape:connector-curvature="0" class="st0" d="M1050.7,396.3c0,39.4-32,71.4-71.4,71.4
	c-39.4,0-71.4-32-71.4-71.4c0-39.4,32-71.4,71.4-71.4C1018.8,324.9,1050.7,356.9,1050.7,396.3"/>
<path id="path288_1_" inkscape:connector-curvature="0" class="st1" d="M1042.8,396.3c0,35.1-28.4,63.5-63.5,63.5
	c-35.1,0-63.5-28.4-63.5-63.5c0-35,28.4-63.5,63.5-63.5C1014.4,332.9,1042.8,361.3,1042.8,396.3"/>
<path id="path290_1_" inkscape:connector-curvature="0" class="st7" d="M1023.8,392.1h-27v-23.4c0-2.9-0.1-3.1-3-3.1h-26.4
	c-2.9,0-7.6,0.2-7.6,3.1v23.4h-22.4c-2.9,0-7.6,0.2-7.6,3.1v22.9c0,2.9,4.7,7.5,7.6,7.5h86.4c2.9,0,3-4.6,3-7.5v-22.9
	C1026.8,392.3,1026.8,392.1,1023.8,392.1"/>
<path id="path292_1_" inkscape:connector-curvature="0" class="st5" d="M1023.8,388.2h-27v-23.4c0-2.9-0.1-3.1-3-3.1h-26.4
	c-2.9,0-7.6,0.2-7.6,3.1v23.4h-22.4c-2.9,0-7.6,0.2-7.6,3.1v22.9c0,2.9,4.7,7.5,7.6,7.5h86.4c2.9,0,3-4.6,3-7.5v-22.9
	C1026.8,388.3,1026.8,388.2,1023.8,388.2"/>
<path id="path294_1_" inkscape:connector-curvature="0" class="st6" d="M993.9,361.7h-26.4c-2.9,0-7.6,0.2-7.6,3.1v23.4h-22.4
	c-2.9,0-7.6,0.2-7.6,3.1v22.9c0,2.9,4.7,7.5,7.6,7.5h20.3l39.1-33.8v-23C996.9,361.9,996.8,361.7,993.9,361.7"/>
<path id="path296_1_" inkscape:connector-curvature="0" class="st7" d="M976,395.7c0.3,0,0.6-0.1,0.8-0.3c0.2-0.2,0.4-0.5,0.4-1.1
	v-16.2c-0.2,0-0.5,0-0.8,0c-0.3,0-0.6,0.1-0.9,0.2c-0.3,0.1-0.6,0.2-0.8,0.3c-0.2,0.1-0.4,0.3-0.5,0.6h-0.6v-6.1h0.6
	c0,0.3,0.1,0.5,0.4,0.6c0.3,0.1,0.6,0.2,0.8,0.2c0.6,0,1-0.2,1.4-0.5c0.4-0.3,0.6-0.8,0.6-1.2c0-0.5-0.1-0.7-0.3-0.9
	c-0.2-0.1-0.5-0.2-0.8-0.3v-0.6h7.9v0.6c-0.4,0.1-0.7,0.2-1,0.3c-0.3,0.2-0.4,0.4-0.4,0.7v22.2c0,0.5,0.1,0.9,0.4,1.1
	c0.3,0.2,0.5,0.3,0.9,0.3v0.6h-8V395.7"/>
<path id="path298_1_" inkscape:connector-curvature="0" class="st7" d="M954.5,412.7h-0.4c0-0.2-0.1-0.4-0.3-0.4c-0.2,0-0.4,0-0.7,0
	h-13.5c-0.2,0-0.4,0-0.6,0c-0.1,0-0.2,0.1-0.2,0.3h-0.4v-1.1c0-1.1,0.3-2.1,0.8-2.9c0.6-0.8,1.3-1.5,2.1-2.1
	c0.9-0.6,1.8-1.2,2.7-1.6c1-0.5,1.9-0.9,2.7-1.4c0.9-0.5,1.6-0.9,2.1-1.4c0.6-0.5,0.8-1.1,0.8-1.7c0-0.4-0.1-0.8-0.3-1.1
	c-0.2-0.3-0.5-0.5-0.8-0.7c-0.3-0.2-0.7-0.3-1.1-0.4c-0.4-0.1-0.8-0.1-1.1-0.1c-0.4,0-0.8,0.1-1.3,0.2c-0.5,0.1-1,0.3-1.5,0.6
	c-0.5,0.3-0.9,0.6-1.3,0.9c-0.4,0.4-0.5,0.8-0.5,1.2l0.1,0.4l0.2,0.4l-0.3,0.2l-3.3-3.5l0.3-0.2l0.3,0.1l0.3,0.1
	c0.1,0,0.4-0.2,0.7-0.5c0.3-0.3,0.8-0.7,1.4-1.1c0.6-0.4,1.3-0.7,2.2-1.1c0.9-0.3,2-0.5,3.2-0.5c0.8,0,1.6,0.1,2.4,0.3
	c0.8,0.2,1.5,0.5,2.1,0.9c0.6,0.4,1.1,0.9,1.5,1.6c0.4,0.7,0.6,1.4,0.6,2.4c0,1-0.2,1.8-0.6,2.5c-0.4,0.7-0.9,1.2-1.5,1.7
	c-0.6,0.5-1.3,0.8-2.1,1.2c-0.8,0.3-1.6,0.6-2.4,0.9c-0.8,0.3-1.6,0.6-2.4,1c-0.8,0.3-1.4,0.8-2,1.3v0.3h10.6c0.2,0,0.5,0,0.7-0.1
	c0.2-0.1,0.3-0.3,0.3-0.8h0.4L954.5,412.7"/>
<path id="path300_1_" inkscape:connector-curvature="0" class="st7" d="M1003.9,397.8l0.4-0.3c0.2,0.1,0.3,0.2,0.5,0.2
	c0.1,0,0.3-0.1,0.6-0.4c0.3-0.2,0.7-0.5,1.3-0.8c0.6-0.3,1.3-0.6,2.1-0.8c0.9-0.2,1.9-0.4,3.1-0.4c0.8,0,1.7,0.1,2.5,0.3
	c0.8,0.2,1.6,0.4,2.3,0.8c0.7,0.4,1.3,0.9,1.7,1.4c0.4,0.6,0.7,1.3,0.7,2.1c0,0.8-0.2,1.5-0.7,2.1c-0.4,0.7-1,1.1-1.8,1.2v0.1
	c0.9,0.2,1.7,0.6,2.2,1.3c0.6,0.6,0.9,1.4,0.9,2.4c0,1.1-0.3,2-0.8,2.7c-0.5,0.7-1.2,1.3-2,1.7c-0.8,0.4-1.7,0.7-2.7,0.8
	c-1,0.1-1.9,0.2-2.7,0.2c-1,0-1.9-0.1-2.7-0.3s-1.6-0.4-2.2-0.6c-0.6-0.2-1.2-0.5-1.6-0.7c-0.4-0.2-0.7-0.3-0.9-0.3l-0.3,0.1
	l-0.2,0.1l-0.3-0.1l1.9-4.6l0.4,0.2l0,0.2v0.2c0,0.5,0.2,0.9,0.7,1.3c0.5,0.4,1,0.7,1.7,1c0.6,0.3,1.3,0.5,2,0.6
	c0.7,0.1,1.3,0.2,1.8,0.2c0.4,0,0.8,0,1.4-0.1c0.5-0.1,1-0.2,1.5-0.4c0.5-0.2,0.8-0.5,1.2-0.8c0.3-0.3,0.5-0.8,0.5-1.3
	c0-0.5-0.2-0.9-0.5-1.2c-0.3-0.3-0.7-0.5-1.1-0.7c-0.4-0.2-0.9-0.3-1.4-0.3c-0.5-0.1-0.9-0.1-1.3-0.1c-0.5,0-1,0-1.3,0.1
	c-0.4,0.1-0.6,0.3-0.8,0.7h-0.4v-4.3h0.4c0,0.4,0.3,0.7,0.7,0.8c0.4,0.1,0.9,0.2,1.4,0.2c0.3,0,0.7,0,1.2-0.1
	c0.4-0.1,0.9-0.2,1.3-0.4c0.4-0.2,0.7-0.4,1-0.7c0.3-0.3,0.4-0.7,0.4-1.1c0-0.4-0.1-0.8-0.4-1c-0.2-0.3-0.6-0.5-1-0.6
	c-0.4-0.1-0.8-0.3-1.3-0.3c-0.5-0.1-1-0.1-1.5-0.1c-0.6,0-1.2,0.1-1.8,0.2c-0.6,0.1-1.1,0.3-1.6,0.5c-0.5,0.2-0.9,0.4-1.2,0.7
	c-0.3,0.3-0.5,0.5-0.5,0.8l0,0.3l0.1,0.3l-0.3,0.2L1003.9,397.8"/>
<image style="overflow:visible;" width="564" height="564" xlink:href="../MKT/CREDIT HUB/logo-small.png"  transform="matrix(0.2544 0 0 0.2532 333.9713 322.8788)">
</image>
</svg>
